<svg xmlns="http://www.w3.org/2000/svg" id="Layer_3" data-name="Layer 3" viewBox="0 0 56.69 56.69" width="56.69" height="56.69"><metadata><rdf:RDF xmlns:rdf="http://www.w3.org/1999/02/22-rdf-syntax-ns#" xmlns:dc="http://purl.org/dc/elements/1.1/"><rdf:Description><dc:creator>RealFaviconGenerator</dc:creator><dc:source>https://realfavicongenerator.net</dc:source></rdf:Description></rdf:RDF></metadata><defs>
    <style>
      .cls-1 {
        fill: #fff;
      }

      .cls-2 {
        fill: #b8a57b;
      }
    </style>
  </defs><circle class="cls-1" cx="28.35" cy="28.35" r="28.35"></circle><rect x="27.25" y="17.02" width="6.03" height="2.63" transform="translate(3.41 41.38) rotate(-71.84)"></rect><rect x="30.91" y="18.24" width="6.03" height="2.63" transform="translate(4.77 45.7) rotate(-71.84)"></rect><path d="M21.83,22.96l1.97-5.18,1.12.26-.5,1.52,2.5.82,1.88-5.73-2.5-.82-.56,1.7-2.45-.58c-.64-.15-1.3.2-1.53.81l-2.7,7.1c-.19.51-.06,1.08.35,1.44l4.95,4.49v15.18h2.63v-15.76c0-.37-.16-.73-.43-.97l-4.72-4.27Z"></path><path d="M36.4,43.97h-2.63v-15.57c0-.14.02-.28.06-.41l3.33-10.2,2.5.82-3.27,10v15.36Z"></path><path class="cls-2" d="M19.74,15.12l-9.96-2.36c-.57-.13-1.15.12-1.44.62L1.5,25.24h0s0,.01-.01.02c-.23.42-.22.92.03,1.33,1.71,2.78,4.84,4.58,7.99,4.58s6.31-1.77,7.96-4.61c.24-.41.24-.91,0-1.32,0,0,0,0,0,0h0s-5.32-9.22-5.32-9.22l6.99,1.66.61-2.56ZM9.48,16.67l4.57,7.92H4.91l4.57-7.92ZM9.5,28.54c-1.37,0-2.75-.49-3.9-1.33h7.83c-1.12.85-2.5,1.33-3.94,1.33Z"></path><path class="cls-2" d="M55.2,34.18h0s0,0,0,0h0s0,0,0,0l-6.85-11.86c-.18-.31-.48-.54-.84-.62l-6.27-1.49-.61,2.56,4.55,1.08-5.96,10.32s0,0,0,0,0,0,0,0h0s0,0,0,0c-.23.4-.24.89-.01,1.3,1.57,2.81,4.69,4.63,7.97,4.63s6.38-1.77,8.02-4.62c.23-.41.23-.91,0-1.31ZM51.78,33.53h-9.14l4.57-7.92,4.57,7.92ZM47.18,37.48c-1.44,0-2.83-.49-3.95-1.33h7.94c-1.13.85-2.53,1.33-3.99,1.33Z"></path></svg>