<svg xmlns="http://www.w3.org/2000/svg" viewBox="0 0 283.46 283.46" width="283.46" height="283.46"><metadata><rdf:RDF xmlns:rdf="http://www.w3.org/1999/02/22-rdf-syntax-ns#" xmlns:dc="http://purl.org/dc/elements/1.1/"><rdf:Description><dc:creator>RealFaviconGenerator</dc:creator><dc:source>https://realfavicongenerator.net</dc:source></rdf:Description></rdf:RDF></metadata><path d="M126.94 45.41l14.74-10.73 14.75 10.73-5.64-17.34 14.74-10.73h-18.21L141.68 0l-5.64 17.34h-18.21l14.74 10.73-5.63 17.34zm73.67.44l9.43 15.6 1.52-18.19 17.74-4.17-16.79-7.06 1.52-18.16-11.9 13.8-16.82-7.06 9.46 15.61-11.92 13.8 17.76-4.17zM71.8 43.28l1.35 18.19 9.6-15.49 17.69 4.34L88.67 36.4l9.58-15.49-16.84 6.88-11.78-13.92 1.35 18.16-16.89 6.91 17.71 4.34zm179.72 143l-32.13-64.26h10.13c4.05 0 7.34-3.29 7.34-7.34s-3.29-7.34-7.34-7.34h-11.59a88.66 88.66 0 0 0-61.61-28.62l-.18-.73a14.68 14.68 0 1 0-29.36 0v.73c-23.72.99-46.1 11.25-62.33 28.58l-11.05.04c-4.05 0-7.34 3.29-7.34 7.34s3.29 7.34 7.34 7.34h10.13L31.4 186.28c-4.98 7.19-7.9 15.91-7.9 25.32 0 24.62 19.96 44.58 44.58 44.58s44.58-19.96 44.58-44.58a44.34 44.34 0 0 0-7.93-25.37L71.9 120.69c.93-.54 1.72-1.29 2.33-2.17C87.36 103.09 106.45 94 126.7 93.54l.09 160.56h-14.68v14.68H82.76v14.68h117.41v-14.68h-29.35V254.1h-14.68V93.55a68.98 68.98 0 0 1 51.72 24.85 7.42 7.42 0 0 0 2.83 2.73l-32.55 65.18a44.39 44.39 0 0 0-7.88 25.29c0 24.62 19.96 44.58 44.58 44.58s44.58-19.96 44.58-44.58c0-9.41-2.92-18.13-7.9-25.32zM84.65 170.22c-5.12-2.05-10.71-3.2-16.57-3.2s-11.45 1.14-16.57 3.2l16.57-32.64 16.57 32.64zm130.19-32.64l16.57 32.64c-5.12-2.05-10.71-3.2-16.57-3.2s-11.45 1.14-16.57 3.2l16.57-32.64z" fill="#b8a57b"></path><path d="M235.42 204.54a4.47 4.47 0 0 1 1.74.35c.55.23 1.03.56 1.44.96s.74.89.99 1.44.37 1.14.35 1.76a4.35 4.35 0 0 1-.24 1.44l-6.02 18.07c-.16.45-.38.87-.66 1.25s-.61.71-.99.99a3.68 3.68 0 0 1-1.22.61 7.68 7.68 0 0 1-1.41.24h-12.05c-2.81 0-5.51-.54-8.12-1.62a20.91 20.91 0 0 0-3.39-1.04c-1.13-.24-2.31-.35-3.55-.35h-10.54v-21.08h9.81c1.02 0 1.98-.19 2.87-.56s1.71-.93 2.45-1.65l14.64-14.61c.39-.39.78-.7 1.18-.92.39-.22.87-.33 1.44-.33a3.76 3.76 0 0 1 1.46.28c.46.19.85.46 1.2.82a3.94 3.94 0 0 1 .8 1.2c.19.44.29.93.31 1.46 0 1.27-.14 2.48-.42 3.62s-.7 2.29-1.25 3.44c-.31.67-.58 1.36-.8 2.05a10.9 10.9 0 0 0-.45 2.19h10.45zm-169.3-8.06c2.79 0 5.5.54 8.12 1.62a20.91 20.91 0 0 0 3.39 1.04c1.13.24 2.31.35 3.55.35h10.54v21.08h-9.81c-1.02 0-1.98.19-2.87.56s-1.71.93-2.45 1.65l-14.64 14.61c-.39.39-.78.7-1.18.92s-.87.33-1.44.33a3.76 3.76 0 0 1-1.46-.28c-.46-.19-.85-.46-1.2-.82a3.94 3.94 0 0 1-.8-1.2c-.19-.44-.29-.93-.31-1.46 0-1.27.14-2.48.42-3.62s.7-2.29 1.25-3.44c.31-.67.58-1.36.8-2.05a10.9 10.9 0 0 0 .45-2.19H48.03a4.47 4.47 0 0 1-1.74-.35c-.55-.24-1.03-.56-1.44-.96a4.86 4.86 0 0 1-.99-1.44c-.25-.55-.37-1.14-.35-1.76a4.35 4.35 0 0 1 .24-1.44l6.02-18.07a4.41 4.41 0 0 1 1.65-2.24 4.38 4.38 0 0 1 2.64-.85h12.05z" fill="#fff"></path></svg>